<svg version="1.1" id="Layer_1" xmlns="http://www.w3.org/2000/svg" xmlns:xlink="http://www.w3.org/1999/xlink" x="0px" y="0px"
	 width="100%" viewBox="0 0 525 460" enable-background="new 0 0 525 460" xml:space="preserve">
<path fill="#000000" opacity="1.000000" stroke="none" 
	d="
M261.000000,461.000000 
	C175.333359,461.000000 90.166672,460.973633 5.000199,461.095917 
	C1.576046,461.100830 0.902685,460.423889 0.905180,457.000000 
	C1.014986,306.333435 1.014982,155.666779 0.905212,5.000240 
	C0.902718,1.576859 1.575858,0.903213 4.999887,0.905354 
	C177.333099,1.013112 349.666412,1.013099 521.999634,0.905419 
	C525.422668,0.903280 526.097351,1.575398 526.094849,4.999771 
	C525.985046,155.666321 525.985046,306.332977 526.094727,456.999542 
	C526.097229,460.422394 525.425354,461.100739 522.000305,461.095917 
	C435.166992,460.974121 348.333466,461.000000 261.000000,461.000000 
z"/>
<path fill="#464646" opacity="1.000000" stroke="none" 
	d="
M252.090912,294.883026 
	C251.911316,295.072845 251.623260,295.203552 251.466431,295.182922 
	C250.712982,295.043213 250.141541,295.087036 249.387421,295.611633 
	C248.980240,295.863495 248.801132,295.928070 248.336426,295.995483 
	C245.841736,298.072876 242.762360,298.700989 240.198334,300.828064 
	C239.961151,301.076233 239.991287,300.975891 240.041565,300.990662 
	C239.253677,301.631836 238.193939,301.888153 237.207428,302.846252 
	C237.002319,303.083130 237.009140,303.015503 237.042328,303.022705 
	C234.976990,304.237122 232.376511,304.470642 230.383179,306.582092 
	C229.374451,307.466278 228.609253,308.122650 227.564407,308.896179 
	C224.511353,310.454742 221.298325,311.180206 219.170410,314.242249 
	C218.666382,314.787292 218.306396,314.997528 217.729950,315.112854 
	C216.628387,315.270813 215.828354,315.731659 214.663910,316.200256 
	C211.851837,317.412872 209.685196,319.029144 207.259613,320.834351 
	C207.043503,321.092926 207.016098,321.026611 207.048370,321.042297 
	C204.122665,322.392639 201.251221,323.892456 198.233185,325.820862 
	C197.995132,326.074738 198.007339,326.005463 198.041870,326.012177 
	C194.641220,328.245544 190.831009,329.856110 187.343445,332.639374 
	C186.416458,333.503998 185.736389,334.131531 184.809357,334.889038 
	C184.117096,335.125427 183.714508,335.318512 183.122177,335.852722 
	C182.883209,336.094025 182.694260,336.163177 182.637360,336.080200 
	C182.143326,336.101776 181.750351,336.295715 181.168701,336.817322 
	C180.935928,337.055573 180.640839,337.191742 180.478638,337.181824 
	C178.652832,336.828491 177.486267,337.744904 176.182983,339.008118 
	C176.013351,339.571289 175.885162,339.790009 175.437897,339.973846 
	C174.059402,340.712006 172.509521,340.528534 171.238983,341.832275 
	C171.009842,342.090302 171.015228,342.024811 171.045837,342.036743 
	C170.240540,342.624176 169.223755,342.883636 168.227982,343.770935 
	C168.012695,343.985962 167.693741,344.083069 167.539459,344.019897 
	C167.082245,344.075897 166.807281,344.241516 166.378784,344.613037 
	C165.878891,345.040863 165.560455,345.309174 165.070129,345.838745 
	C164.751694,346.245422 164.605179,346.390808 164.241180,346.756653 
	C164.023727,346.977051 163.727966,347.110901 163.572495,347.064270 
	C159.791214,348.216370 156.671692,350.301514 153.446564,352.859192 
	C150.938065,354.206757 148.461609,354.913940 146.252411,356.843872 
	C146.030930,357.109131 146.018875,357.035828 146.047989,357.058899 
	C144.188934,357.719574 142.235962,356.969055 140.007172,357.182892 
	C139.399109,357.037201 139.190277,356.925995 139.025024,356.498047 
	C138.829025,355.966095 138.615784,355.647980 138.131592,355.180786 
	C137.904831,355.002106 137.976776,355.015808 137.969604,355.051697 
	C136.095871,351.684509 137.085785,348.545105 138.779236,345.423920 
	C139.937897,343.288422 140.944809,341.071594 142.194382,338.545044 
	C144.854874,331.900299 149.390564,326.508606 150.708466,319.281189 
	C150.866150,318.936951 150.978760,318.947357 150.923157,318.955048 
	C151.555817,318.535980 151.483841,317.739990 151.858398,316.772675 
	C151.952026,316.429962 151.803192,316.281158 151.862976,316.194550 
	C152.178909,315.865540 152.420288,315.609222 152.787827,315.115356 
	C152.928833,314.891785 152.959885,314.961853 152.924438,314.947296 
	C153.185043,314.766815 153.450394,314.561829 153.822968,314.102417 
	C153.965897,313.893463 153.960907,313.963043 153.926483,313.957397 
	C156.168839,311.895935 157.265320,309.217560 157.886566,305.968140 
	C157.412537,304.178162 158.760513,303.335968 159.325165,301.983582 
	C161.917969,301.455994 161.906601,299.289307 162.588486,297.768585 
	C164.914917,292.580231 168.432846,287.955902 169.865631,282.016846 
	C169.847458,281.675995 169.793304,281.379730 169.856552,281.243073 
	C170.178345,280.865265 170.420578,280.608643 170.796021,280.118439 
	C170.943405,279.898315 170.956497,279.965179 170.923477,279.956818 
	C173.000015,278.225433 173.440186,275.574707 174.787750,273.031830 
	C174.997055,272.751740 174.963745,272.285645 175.058624,272.072113 
	C175.781998,271.221832 176.295547,270.506470 176.803680,269.377563 
	C179.622482,263.382721 182.705322,257.894104 185.385971,251.815567 
	C188.396072,247.476288 190.185577,242.888885 192.356796,238.519791 
	C195.349686,232.497314 198.909531,226.750626 201.461655,220.097687 
	C204.314301,213.887115 208.306320,208.610825 209.846878,201.793304 
	C209.952194,201.432648 209.797882,201.289749 209.854446,201.201111 
	C210.057800,200.958618 210.204590,200.804764 210.600052,200.451111 
	C212.082275,199.372925 212.707336,197.957932 213.898132,196.638885 
	C213.811615,196.181976 213.601761,196.019226 213.624359,195.748779 
	C213.767487,195.264160 213.678162,194.887253 213.785156,193.963531 
	C213.981476,193.416687 213.820328,193.274857 213.875961,193.183075 
	C214.210251,192.768570 214.439636,192.413971 214.839447,191.796967 
	C215.580414,191.165710 215.947052,190.667938 216.114059,189.688614 
	C216.401779,188.770981 216.500137,188.139694 216.725677,187.218903 
	C216.869583,186.932938 216.870728,186.859711 216.907303,186.857971 
	C217.163498,186.763596 217.383133,186.670959 217.922958,186.418701 
	C223.817764,175.480026 229.597885,164.803207 234.576111,153.330017 
	C237.105408,150.239319 238.322800,146.871933 239.763458,143.217484 
	C239.952194,142.912613 239.966995,142.977310 239.934021,142.973541 
	C241.851242,141.329575 242.212402,138.856033 243.306595,136.400116 
	C243.489975,135.887787 243.553696,135.679474 243.787933,135.192444 
	C243.958481,134.913712 243.972137,134.985428 243.936218,134.991882 
	C246.082291,132.460007 246.786331,129.161209 248.525696,125.991669 
	C251.286148,120.159309 254.256607,114.825562 256.799866,108.865112 
	C257.365265,108.205032 257.737610,107.855377 257.892273,107.391556 
	C260.428894,99.784134 268.069336,99.459633 271.808228,106.721619 
	C272.094696,107.002892 272.013855,106.993202 272.018890,106.952789 
	C273.610046,109.260719 273.504089,112.394791 275.819519,114.763527 
	C276.079865,115.001694 275.997589,114.999794 275.998474,114.958656 
	C276.744629,116.212654 276.651459,118.077675 278.772919,118.826874 
	C279.033539,119.039223 279.157776,119.244324 279.085388,119.339905 
	C279.114105,119.876938 279.313385,120.270058 279.833557,120.859039 
	C280.070099,121.096451 280.209229,121.349274 280.181274,121.490829 
	C280.047241,122.097549 280.205292,122.462158 280.834106,122.933762 
	C281.091125,123.122124 281.197632,123.292610 281.124023,123.361038 
	C281.111511,123.656364 281.172607,123.883247 281.348267,124.443283 
	C281.788269,127.142487 282.704987,129.273483 284.191650,131.551483 
	C285.281921,134.982224 286.755219,137.838531 288.833740,140.753784 
	C289.095062,140.980286 289.027985,140.980606 289.034729,140.947754 
	C292.905975,149.596405 296.749451,158.288208 301.815643,166.765030 
	C302.082855,167.016922 301.998413,167.007828 302.002869,166.965591 
	C303.231750,169.715256 304.381500,172.544281 306.226685,175.415970 
	C307.260315,178.082291 308.334442,180.345428 309.838806,182.751083 
	C310.097565,182.974258 310.030853,182.977844 310.037292,182.945068 
	C311.502258,184.951859 311.434814,187.805481 313.827423,189.702560 
	C314.100677,189.912628 314.019165,189.989319 314.056946,189.952698 
	C314.856750,192.697083 316.036041,195.323090 317.229034,198.322784 
	C319.086304,201.948364 320.685577,205.310333 322.832764,208.752975 
	C323.093567,208.985168 323.025574,208.982925 323.031311,208.949402 
	C324.409149,212.185501 325.306030,215.678711 327.821320,218.777267 
	C328.081146,219.021774 327.993134,219.011292 327.998230,218.967270 
	C328.210114,219.190308 328.436218,219.439865 328.891785,219.812744 
	C329.101929,219.953537 329.025543,219.974976 329.051025,219.944595 
	C329.898560,220.999191 329.810699,222.455215 330.799103,223.802856 
	C331.032013,224.038376 331.151947,224.275421 331.086670,224.391098 
	C331.858185,226.745193 332.069794,229.240402 333.987946,231.402161 
	C336.178040,234.711761 337.065430,238.289398 339.277832,241.598434 
	C342.286346,247.611099 344.081116,253.874405 348.836487,258.909515 
	C349.110291,259.139648 349.190247,259.322662 349.104675,259.374146 
	C349.117218,259.876770 349.318390,260.277710 349.848969,260.877502 
	C350.089722,261.119507 350.176483,261.302704 350.095398,261.363525 
	C350.118500,261.870361 350.311829,262.273621 350.838257,262.870605 
	C351.082123,263.107086 351.211670,263.370605 351.195770,263.516541 
	C351.024902,264.331818 351.112671,264.948883 351.827759,265.689575 
	C352.083069,265.893372 352.047089,265.954285 352.060455,265.928650 
	C352.262207,266.207825 352.474945,266.494324 352.908386,266.946594 
	C353.100708,267.133575 353.186096,267.312256 353.103210,267.366455 
	C353.123016,267.873932 353.316040,268.283356 353.854065,268.888550 
	C354.094971,269.134827 354.217255,269.369995 354.185883,269.498779 
	C353.992340,274.368408 357.428680,277.688293 359.065948,281.712067 
	C360.223236,284.556183 361.778564,287.291046 363.225464,290.430359 
	C365.112762,294.002136 366.423157,297.483490 368.833374,300.746582 
	C369.097015,300.971161 369.031372,300.978699 369.040100,300.946838 
	C371.597839,306.704742 374.377441,312.385956 377.274750,318.409180 
	C381.334778,326.478668 385.173645,334.258575 389.682434,342.041260 
	C390.455170,342.730469 390.827271,343.302490 391.277252,344.216675 
	C391.260712,345.542328 391.727448,346.225739 392.835510,346.906219 
	C393.093384,347.112946 393.215271,347.377319 393.188721,347.520416 
	C393.103149,351.611450 393.035919,355.555084 387.878967,357.106476 
	C387.053864,357.374176 386.577026,357.473969 385.725525,357.469971 
	C384.206909,357.176270 383.678925,355.785065 382.126587,355.995239 
	C381.875427,356.237152 381.979370,356.060638 382.067291,356.113159 
	C381.957642,356.231110 381.760071,356.296509 381.297729,356.196564 
	C380.473724,355.383789 379.914520,354.736328 379.083252,353.912354 
	C375.793365,351.771667 373.025635,349.369476 369.167236,348.195709 
	C367.742584,347.402802 366.596832,346.803162 365.171631,346.031555 
	C363.780121,344.385620 362.076599,343.972015 360.193970,343.217987 
	C359.921417,343.044983 359.983429,343.024414 359.982117,343.057068 
	C359.362122,342.183960 358.360992,341.841614 357.183594,341.207092 
	C356.919647,341.044067 356.983459,341.024231 356.986725,341.057495 
	C354.507751,338.905365 351.584961,337.520416 348.209198,336.234985 
	C347.913330,336.048950 347.977295,336.030701 347.970306,336.063232 
	C347.594696,335.593231 347.138367,335.187866 346.330505,334.728271 
	C345.860870,334.527008 345.665009,334.466095 345.171173,334.328491 
	C344.873199,334.251862 344.843597,334.228333 344.838867,334.210022 
	C343.019470,332.423218 340.776123,331.373352 338.197449,330.220703 
	C337.910492,330.036774 337.976257,330.030182 337.967346,330.062012 
	C335.420288,327.168518 332.071472,325.593292 328.199738,324.209717 
	C327.910614,324.012054 328.007660,323.977753 328.025085,324.026184 
	C325.019836,321.706299 321.569092,320.035431 318.102112,317.780457 
	C313.221863,317.349426 309.737030,314.669281 306.119019,311.660400 
	C303.720703,307.947906 299.949615,306.955109 296.220032,305.227661 
	C295.921356,305.034576 295.984589,305.019684 295.981323,305.052002 
	C295.359253,304.185059 294.365356,303.840668 293.186371,303.219421 
	C292.920502,303.062103 292.983917,303.022095 292.969757,303.056824 
	C291.297180,300.783813 288.630432,300.255188 285.883453,299.151031 
	C285.092102,298.978088 284.637451,298.928192 284.081818,298.659485 
	C283.854706,298.049500 283.660583,297.696564 283.147919,297.198853 
	C282.907837,297.009918 282.985718,297.016541 282.982117,297.055481 
	C281.142822,295.117798 278.579285,294.426453 275.940369,293.154755 
	C275.614685,293.016418 275.274231,293.098236 275.114014,293.027649 
	C274.745789,292.699738 274.505157,292.477783 274.036133,292.141968 
	C273.502045,292.006592 273.249268,291.866333 273.042358,291.348755 
	C271.098633,289.197510 268.705231,288.199463 265.822174,287.501587 
	C264.472290,287.304138 263.432556,286.765472 262.239075,287.843689 
	C262.034821,288.089142 262.016968,288.023102 262.047241,288.039062 
	C261.224762,288.632690 260.188110,288.896393 259.219940,289.851990 
	C259.022797,290.090454 259.008728,290.012177 259.047913,290.005310 
	C258.734039,290.265198 258.433807,290.582001 258.091431,291.264587 
	C257.278229,292.057892 256.559814,292.535370 255.588287,293.097565 
	C254.660583,293.028107 254.036804,293.112610 253.283920,293.828613 
	C253.074646,294.083191 253.010696,294.035156 253.050262,294.040863 
	C252.800583,294.241669 252.528259,294.458221 252.090912,294.883026 
z"/>
<path fill="#8E8E8E" opacity="1.000000" stroke="none" 
	d="
M201.908661,219.867355 
	C197.956619,231.143845 192.092392,241.400253 186.516785,252.127045 
	C185.696548,251.903717 185.471771,251.358719 185.754791,250.257446 
	C187.163071,242.619980 192.235367,237.193893 194.859512,230.617767 
	C196.287888,227.038284 198.426727,223.742325 200.542328,220.133270 
	C201.088242,219.838074 201.336990,219.728058 201.908661,219.867355 
z"/>
<path fill="#9C9C9C" opacity="1.000000" stroke="none" 
	d="
M235.352539,153.101013 
	C232.577835,161.753799 228.078552,169.073151 224.218704,176.674561 
	C222.447784,180.162140 221.713867,184.260651 218.355316,187.262222 
	C217.892029,187.202240 217.715866,186.937469 217.734055,186.237030 
	C218.127762,180.349777 222.255890,176.614166 224.146637,171.858551 
	C226.859604,165.034866 230.853210,158.720337 234.618134,152.011414 
	C235.119019,152.101044 235.301910,152.367706 235.352539,153.101013 
z"/>
<path fill="#919191" opacity="1.000000" stroke="none" 
	d="
M389.997559,343.152802 
	C384.584320,336.041992 380.844574,327.903564 377.185730,319.327789 
	C377.265411,318.838654 377.426178,318.702789 377.826447,318.772736 
	C383.061432,325.454041 385.852509,333.139069 389.883972,340.542175 
	C390.385986,341.464355 390.493896,342.113892 389.997559,343.152802 
z"/>
<path fill="#939393" opacity="1.000000" stroke="none" 
	d="
M301.992004,166.655655 
	C298.011017,164.865585 297.488953,160.361481 295.655365,156.836853 
	C293.109467,151.943024 289.908661,147.275681 288.940552,141.304962 
	C292.591125,144.094376 293.746948,148.716782 295.932251,152.688873 
	C298.309906,157.010574 299.943298,161.741745 301.992004,166.655655 
z"/>
<path fill="#989898" opacity="1.000000" stroke="none" 
	d="
M363.286255,291.176697 
	C359.591553,284.097015 354.741364,277.846344 353.812195,269.796997 
	C357.679596,276.377045 361.782501,282.849579 364.026855,290.603088 
	C363.864929,291.116638 363.699036,291.241974 363.286255,291.176697 
z"/>
<path fill="#989898" opacity="1.000000" stroke="none" 
	d="
M169.560974,281.907532 
	C171.426697,282.354462 170.901154,283.654419 170.447037,284.585571 
	C167.643738,290.333801 164.748489,296.037720 161.827011,301.727173 
	C161.373215,302.610962 160.623123,303.331879 159.529602,302.242096 
	C162.831451,295.271118 166.052963,288.705078 169.560974,281.907532 
z"/>
<path fill="#9F9F9F" opacity="1.000000" stroke="none" 
	d="
M272.051300,106.628754 
	C271.432831,106.585815 270.662170,106.276382 270.126129,105.734787 
	C265.548981,101.110252 262.791809,101.360184 259.416138,106.752769 
	C258.986389,107.439323 258.499329,108.090004 257.778809,108.946640 
	C257.253326,109.369331 256.987854,109.602676 256.393311,109.420341 
	C256.356659,108.275314 256.679138,107.556419 256.936432,106.814880 
	C258.217010,103.123749 260.046326,99.925919 264.542847,99.936615 
	C268.682159,99.946465 270.856171,102.566338 272.051300,106.628754 
z"/>
<path fill="#A4A4A4" opacity="1.000000" stroke="none" 
	d="
M185.611618,249.972229 
	C186.007584,250.383377 186.064743,250.936874 186.177643,251.905197 
	C183.371826,258.085175 180.510239,263.850311 177.395996,269.839233 
	C176.926682,270.179077 176.710037,270.295105 176.197601,270.191101 
	C176.430786,264.462860 180.351715,260.425110 182.358124,255.542435 
	C183.079102,253.787872 183.459976,251.445343 185.611618,249.972229 
z"/>
<path fill="#9C9C9C" opacity="1.000000" stroke="none" 
	d="
M202.465179,219.879211 
	C201.999069,220.092850 201.766541,220.069031 201.186752,219.996643 
	C202.353439,213.311707 206.625565,207.987518 209.676727,201.692047 
	C211.430832,203.470169 209.968399,205.350906 209.251221,206.952499 
	C207.308731,211.290466 204.914108,215.425980 202.465179,219.879211 
z"/>
<path fill="#A4A4A4" opacity="1.000000" stroke="none" 
	d="
M150.533859,319.084595 
	C152.996811,320.744354 151.041229,322.299072 150.386200,323.732025 
	C148.253052,328.398590 145.885300,332.957947 143.377991,337.804504 
	C142.918350,338.165314 142.688522,338.280243 142.143433,338.173462 
	C142.846436,332.294067 146.356537,327.761749 148.862106,322.793945 
	C149.461929,321.604706 149.772232,320.423157 150.533859,319.084595 
z"/>
<path fill="#919191" opacity="1.000000" stroke="none" 
	d="
M349.056610,258.765747 
	C346.351990,260.046814 345.855316,257.569672 345.114624,256.110352 
	C342.907532,251.761887 341.017517,247.252502 338.905396,242.445801 
	C339.014740,241.929016 339.222260,241.772430 339.780273,241.786865 
	C343.088135,247.435867 346.045532,252.913849 349.056610,258.765747 
z"/>
<path fill="#A7A7A7" opacity="1.000000" stroke="none" 
	d="
M255.926529,109.333519 
	C256.306854,109.023201 256.549438,109.041756 257.155396,109.098145 
	C254.894440,114.629517 252.270065,120.123055 249.387024,125.834152 
	C248.910599,126.168816 248.692856,126.285919 248.177261,126.182091 
	C249.685638,120.125351 252.291809,114.677711 255.926529,109.333519 
z"/>
<path fill="#969696" opacity="1.000000" stroke="none" 
	d="
M378.055389,318.589478 
	C378.065918,318.978516 377.585175,318.970337 377.344910,318.972412 
	C373.641052,313.538147 370.784454,307.810425 368.922180,301.290527 
	C373.401428,305.972137 375.899567,311.994446 378.055389,318.589478 
z"/>
<path fill="#969696" opacity="1.000000" stroke="none" 
	d="
M141.517456,338.112549 
	C142.048050,337.968353 142.267929,337.984955 142.817993,338.026001 
	C141.996796,343.606750 136.839005,347.925476 138.054565,354.664520 
	C133.829605,351.921844 136.444427,348.265106 137.492264,344.957764 
	C138.246719,342.576385 139.934998,340.490875 141.517456,338.112549 
z"/>
<path fill="#919191" opacity="1.000000" stroke="none" 
	d="
M386.588623,357.067596 
	C391.196655,355.343140 391.958130,351.752106 392.774323,347.809326 
	C395.042328,354.072388 393.265594,357.493408 387.381195,357.963623 
	C386.739838,357.712524 386.490204,357.538025 386.588623,357.067596 
z"/>
<path fill="#868686" opacity="1.000000" stroke="none" 
	d="
M187.457718,332.907104 
	C188.955978,328.274567 193.742340,327.997742 197.703552,325.984772 
	C195.568985,329.676880 191.773071,331.424622 187.457718,332.907104 
z"/>
<path fill="#969696" opacity="1.000000" stroke="none" 
	d="
M363.115479,291.341461 
	C363.039368,290.986145 363.535095,290.986877 363.782959,290.989075 
	C365.688751,294.069305 368.843140,296.333710 369.069031,300.588379 
	C364.618042,299.478241 365.616638,294.497528 363.115479,291.341461 
z"/>
<path fill="#939393" opacity="1.000000" stroke="none" 
	d="
M323.071045,208.599335 
	C318.997589,207.226959 319.222504,202.769211 317.180298,199.321259 
	C317.250641,198.838913 317.414276,198.704910 317.819641,198.776306 
	C320.344330,201.723724 322.614319,204.472763 323.071045,208.599335 
z"/>
<path fill="#939393" opacity="1.000000" stroke="none" 
	d="
M327.985229,218.652039 
	C324.467529,216.965225 323.470306,213.439819 322.943298,209.309464 
	C326.422272,211.122208 326.624237,214.977600 327.985229,218.652039 
z"/>
<path fill="#9C9C9C" opacity="1.000000" stroke="none" 
	d="
M340.087769,241.590652 
	C339.910370,241.980499 339.689972,242.003128 339.138397,242.055695 
	C336.158966,239.526337 335.958099,235.662323 333.757080,232.457916 
	C333.893677,231.941879 334.134949,231.776779 334.788452,231.761108 
	C336.815399,235.014832 338.430084,238.119125 340.087769,241.590652 
z"/>
<path fill="#8E8E8E" opacity="1.000000" stroke="none" 
	d="
M152.974487,353.128967 
	C155.479568,350.009216 158.454132,347.443359 163.015503,346.950195 
	C161.181061,349.867554 157.691803,350.862610 154.527451,352.941101 
	C153.912918,353.206329 153.616455,353.339691 152.974487,353.128967 
z"/>
<path fill="#868686" opacity="1.000000" stroke="none" 
	d="
M328.055542,324.333557 
	C332.298035,323.877930 335.289185,326.356323 337.969788,329.744141 
	C334.403168,328.823792 331.317474,326.711304 328.055542,324.333557 
z"/>
<path fill="#989898" opacity="1.000000" stroke="none" 
	d="
M235.497086,153.339935 
	C235.172195,153.278900 235.124084,152.990143 235.006042,152.267883 
	C235.776611,148.637894 237.229919,145.748444 239.617340,143.035919 
	C239.987503,146.897507 238.059494,150.078110 235.497086,153.339935 
z"/>
<path fill="#868686" opacity="1.000000" stroke="none" 
	d="
M296.083374,305.345886 
	C300.140137,305.366150 303.654755,306.973694 306.008484,310.989716 
	C302.730438,309.458282 299.487915,307.557739 296.083374,305.345886 
z"/>
<path fill="#868686" opacity="1.000000" stroke="none" 
	d="
M369.083313,348.292725 
	C372.918549,348.207947 375.923615,350.325500 378.673584,353.455627 
	C374.829926,353.504944 372.555573,350.116272 369.083313,348.292725 
z"/>
<path fill="#9F9F9F" opacity="1.000000" stroke="none" 
	d="
M157.557922,305.855347 
	C159.434875,309.480652 156.930496,311.765747 154.244171,314.033875 
	C154.017624,310.900146 156.118637,308.695740 157.557922,305.855347 
z"/>
<path fill="#868686" opacity="1.000000" stroke="none" 
	d="
M198.369995,326.016754 
	C199.572891,322.415710 203.155350,321.957336 206.706757,320.955231 
	C204.806931,323.550354 202.269623,325.594330 198.369995,326.016754 
z"/>
<path fill="#939393" opacity="1.000000" stroke="none" 
	d="
M348.032349,336.386200 
	C351.651215,335.982056 354.481720,337.800232 356.964539,340.742126 
	C353.561127,340.611786 350.801117,338.779236 348.032349,336.386200 
z"/>
<path fill="#A4A4A4" opacity="1.000000" stroke="none" 
	d="
M247.565445,126.133186 
	C248.087570,125.976051 248.295731,125.990929 248.816116,126.028755 
	C247.533493,128.969208 247.365585,132.614990 244.248001,134.965576 
	C243.633347,131.567108 246.319122,129.274124 247.565445,126.133186 
z"/>
<path fill="#9F9F9F" opacity="1.000000" stroke="none" 
	d="
M276.054474,114.611443 
	C272.564758,113.783775 272.707733,110.463142 271.953094,107.305786 
	C275.125488,108.380630 275.526367,111.328812 276.054474,114.611443 
z"/>
<path fill="#969696" opacity="1.000000" stroke="none" 
	d="
M318.033569,317.839508 
	C321.485809,318.968445 325.247742,320.152649 327.858459,323.786896 
	C324.223877,322.997345 320.794342,321.264313 318.033569,317.839508 
z"/>
<path fill="#A4A4A4" opacity="1.000000" stroke="none" 
	d="
M306.265350,176.203659 
	C303.934875,173.568710 302.419647,170.872452 301.963257,167.305878 
	C304.906891,168.945267 305.511383,172.370010 307.142212,175.574585 
	C307.007965,176.083847 306.803986,176.228607 306.265350,176.203659 
z"/>
<path fill="#939393" opacity="1.000000" stroke="none" 
	d="
M219.329498,314.357880 
	C219.380066,309.883453 223.636856,310.288361 226.888275,308.937714 
	C225.166733,311.367828 222.466232,312.852631 219.329498,314.357880 
z"/>
<path fill="#9C9C9C" opacity="1.000000" stroke="none" 
	d="
M174.639160,272.867432 
	C175.242935,275.833740 174.189529,278.318939 171.254486,280.027771 
	C171.065262,277.161560 171.907761,274.699677 174.639160,272.867432 
z"/>
<path fill="#868686" opacity="1.000000" stroke="none" 
	d="
M207.403198,321.078674 
	C207.946030,317.949341 210.632355,317.026184 213.651428,316.049500 
	C214.153412,316.215027 214.297577,316.402832 214.251556,316.890503 
	C212.673080,319.638000 209.937637,319.895416 207.403198,321.078674 
z"/>
<path fill="#939393" opacity="1.000000" stroke="none" 
	d="
M289.073181,140.608765 
	C285.335449,139.546707 285.569397,135.610443 283.887573,132.461349 
	C283.963379,131.965515 284.131042,131.825500 284.590118,131.835281 
	C286.271454,134.735794 287.661346,137.486511 289.073181,140.608765 
z"/>
<path fill="#989898" opacity="1.000000" stroke="none" 
	d="
M243.777695,135.783340 
	C243.354218,138.571808 243.115005,141.359299 240.256622,143.002563 
	C239.482742,140.319107 241.561539,138.553772 242.580841,136.134125 
	C243.095978,135.829285 243.295700,135.691284 243.777695,135.783340 
z"/>
<path fill="#9F9F9F" opacity="1.000000" stroke="none" 
	d="
M318.041382,198.597916 
	C318.061401,198.981674 317.574280,198.963272 317.330658,198.968079 
	C315.199615,196.476242 314.293488,193.570419 313.841309,190.248550 
	C316.010529,192.394928 317.487396,195.081451 318.041382,198.597916 
z"/>
<path fill="#969696" opacity="1.000000" stroke="none" 
	d="
M305.984436,176.398804 
	C306.144165,176.016830 306.357605,175.999680 306.891510,175.960815 
	C308.579010,177.844009 309.950989,179.746704 310.077179,182.598450 
	C306.961670,182.069290 306.923401,179.139664 305.984436,176.398804 
z"/>
<path fill="#8E8E8E" opacity="1.000000" stroke="none" 
	d="
M240.320099,300.971924 
	C241.462234,297.969513 244.609314,297.408722 247.718613,296.136963 
	C246.735321,299.349915 243.456055,299.728577 240.320099,300.971924 
z"/>
<path fill="#969696" opacity="1.000000" stroke="none" 
	d="
M152.284042,352.834167 
	C152.891693,352.836639 153.154388,352.888458 153.813232,353.006592 
	C152.049377,354.988617 149.569992,356.307922 146.406448,357.080048 
	C146.948364,354.229767 149.627151,353.813080 152.284042,352.834167 
z"/>
<path fill="#A4A4A4" opacity="1.000000" stroke="none" 
	d="
M284.963776,131.626144 
	C284.700592,132.005157 284.519684,132.025238 284.067230,132.075409 
	C282.068848,130.270676 281.442719,127.905502 280.580811,125.236984 
	C280.745392,124.743881 280.996399,124.626083 281.581512,124.755936 
	C282.959106,127.091469 284.002563,129.179352 284.963776,131.626144 
z"/>
<path fill="#969696" opacity="1.000000" stroke="none" 
	d="
M314.081268,189.552124 
	C309.883514,189.749786 311.256012,185.763458 309.942017,183.298309 
	C312.630707,184.207077 312.730438,187.093414 314.081268,189.552124 
z"/>
<path fill="#868686" opacity="1.000000" stroke="none" 
	d="
M285.759644,299.326843 
	C288.658203,298.737610 291.269867,299.571747 292.986877,302.720032 
	C290.387695,302.420258 287.942261,301.502197 285.759644,299.326843 
z"/>
<path fill="#868686" opacity="1.000000" stroke="none" 
	d="
M230.489563,306.841370 
	C231.083664,303.740814 233.771469,303.435242 236.698029,302.969849 
	C235.798248,305.611359 232.941055,305.628998 230.489563,306.841370 
z"/>
<path fill="#8E8E8E" opacity="1.000000" stroke="none" 
	d="
M264.852234,286.990967 
	C268.086670,286.954224 270.885101,287.730072 272.858154,290.805237 
	C270.576965,290.089111 268.151306,289.052612 265.369202,287.918884 
	C264.901794,287.636200 264.790863,287.450806 264.852234,286.990967 
z"/>
<path fill="#989898" opacity="1.000000" stroke="none" 
	d="
M338.017151,330.376251 
	C340.743866,330.184784 343.178192,331.148590 344.889465,333.834625 
	C341.908203,334.363464 340.293030,332.004761 338.017151,330.376251 
z"/>
<path fill="#939393" opacity="1.000000" stroke="none" 
	d="
M335.142822,231.618011 
	C334.942566,231.941391 334.684448,231.972229 334.039368,232.055023 
	C331.584991,230.306091 331.192505,227.789886 330.882874,224.902130 
	C332.358795,226.789871 334.319550,228.701477 335.142822,231.618011 
z"/>
<path fill="#8E8E8E" opacity="1.000000" stroke="none" 
	d="
M275.833740,293.309326 
	C278.608337,292.930756 281.006287,294.143890 282.957947,296.734680 
	C280.367706,296.529816 278.030487,295.422607 275.833740,293.309326 
z"/>
<path fill="#868686" opacity="1.000000" stroke="none" 
	d="
M360.027039,343.373871 
	C361.979645,342.749023 363.818848,342.956085 364.839539,345.511597 
	C363.012604,345.787262 361.391418,345.144867 360.027039,343.373871 
z"/>
<path fill="#9C9C9C" opacity="1.000000" stroke="none" 
	d="
M213.907654,195.802429 
	C213.512360,198.157883 213.101578,200.017853 211.255127,201.518539 
	C210.612991,201.044922 210.501282,200.397369 210.737671,199.261887 
	C211.318390,197.163574 211.511566,195.366486 213.907654,195.802429 
z"/>
<path fill="#969696" opacity="1.000000" stroke="none" 
	d="
M139.906616,357.358215 
	C141.562408,356.121796 143.531326,356.680359 145.772217,356.879517 
	C144.262726,358.886780 142.157578,357.898529 139.906616,357.358215 
z"/>
<path fill="#868686" opacity="1.000000" stroke="none" 
	d="
M176.357986,339.183655 
	C176.407211,337.035431 177.761841,336.206360 180.132904,336.885925 
	C179.110809,337.810638 177.905167,338.449341 176.357986,339.183655 
z"/>
<path fill="#9F9F9F" opacity="1.000000" stroke="none" 
	d="
M278.951935,118.716347 
	C276.206604,119.558289 276.718536,117.093582 276.020508,115.304398 
	C276.956360,116.076164 277.913361,117.234818 278.951935,118.716347 
z"/>
<path fill="#9F9F9F" opacity="1.000000" stroke="none" 
	d="
M331.044647,223.673462 
	C328.585144,224.051880 328.777710,222.216202 328.855408,220.265076 
	C330.644073,220.516220 331.287323,221.657578 331.044647,223.673462 
z"/>
<path fill="#868686" opacity="1.000000" stroke="none" 
	d="
M171.365540,342.062531 
	C171.444458,340.209381 172.957672,340.059143 174.862885,339.969391 
	C174.278976,341.050934 173.093628,341.705719 171.365540,342.062531 
z"/>
<path fill="#919191" opacity="1.000000" stroke="none" 
	d="
M352.075928,265.570312 
	C349.598999,266.318481 349.280945,265.362610 350.843597,263.542236 
	C351.476166,264.190765 351.772461,264.718994 352.075928,265.570312 
z"/>
<path fill="#9C9C9C" opacity="1.000000" stroke="none" 
	d="
M216.835388,189.745544 
	C217.573105,191.316757 216.655029,192.073303 215.557190,192.991013 
	C215.073013,192.742203 214.865494,192.376328 214.786346,191.392700 
	C214.914673,190.774948 214.949356,190.373703 215.017792,190.184326 
	C215.495056,189.638306 215.969543,189.485199 216.835388,189.745544 
z"/>
<path fill="#8E8E8E" opacity="1.000000" stroke="none" 
	d="
M253.402710,294.072815 
	C252.810654,291.886475 253.529831,291.228119 255.418915,292.856842 
	C254.800354,293.475647 254.265549,293.769012 253.402710,294.072815 
z"/>
<path fill="#868686" opacity="1.000000" stroke="none" 
	d="
M264.769104,286.560730 
	C265.024597,286.900696 265.024658,287.084900 265.018738,287.545380 
	C264.267670,287.880859 263.522552,287.940094 262.406128,288.044250 
	C262.079559,286.377411 263.127899,286.142914 264.769104,286.560730 
z"/>
<path fill="#868686" opacity="1.000000" stroke="none" 
	d="
M237.331360,303.033997 
	C237.245331,301.752869 238.108093,301.139862 239.742920,301.010986 
	C239.574646,302.025482 238.912659,302.867706 237.331360,303.033997 
z"/>
<path fill="#A7A7A7" opacity="1.000000" stroke="none" 
	d="
M389.683838,343.713043 
	C389.715027,342.912811 389.800629,342.322601 389.964233,341.293213 
	C391.318115,341.641693 391.708374,342.949341 391.982849,344.633636 
	C391.667725,345.101654 391.424713,345.218658 390.808197,345.180176 
	C390.202545,344.657501 389.970428,344.290314 389.683838,343.713043 
z"/>
<path fill="#919191" opacity="1.000000" stroke="none" 
	d="
M214.408722,317.118530 
	C214.056107,316.996368 214.050797,316.802338 214.027374,316.317780 
	C214.927048,315.644806 215.844833,315.262390 217.138062,314.948944 
	C216.645706,315.763947 216.139145,317.001007 214.408722,317.118530 
z"/>
<path fill="#868686" opacity="1.000000" stroke="none" 
	d="
M168.346558,343.996521 
	C168.092010,342.482727 169.105896,342.011505 170.731842,341.942139 
	C170.672745,343.184753 169.919739,343.893402 168.346558,343.996521 
z"/>
<path fill="#919191" opacity="1.000000" stroke="none" 
	d="
M390.450562,345.323364 
	C390.680725,345.020142 390.926819,345.015533 391.541840,344.997742 
	C392.285553,345.483398 392.660339,345.982208 393.064270,346.796967 
	C391.313873,348.208557 391.028687,346.671204 390.450562,345.323364 
z"/>
<path fill="#868686" opacity="1.000000" stroke="none" 
	d="
M357.028442,341.363403 
	C358.256348,340.732635 359.223206,341.247131 359.946106,342.736755 
	C358.704651,343.284241 357.853973,342.618835 357.028442,341.363403 
z"/>
<path fill="#868686" opacity="1.000000" stroke="none" 
	d="
M259.356934,290.063965 
	C259.100006,288.594482 260.115784,288.076904 261.731445,287.939514 
	C261.690338,289.207397 260.917633,289.895599 259.356934,290.063965 
z"/>
<path fill="#868686" opacity="1.000000" stroke="none" 
	d="
M293.004303,303.384216 
	C294.341980,302.542664 295.232117,303.279083 295.978149,304.720032 
	C294.735291,305.211060 293.886780,304.510925 293.004303,303.384216 
z"/>
<path fill="#919191" opacity="1.000000" stroke="none" 
	d="
M381.820557,356.495789 
	C382.938751,355.232147 383.981689,355.410919 385.190857,356.527100 
	C384.904877,357.298431 384.320526,357.526947 383.187988,357.198486 
	C382.428436,356.883728 382.097076,356.819092 381.820557,356.495789 
z"/>
<path fill="#939393" opacity="1.000000" stroke="none" 
	d="
M345.786652,334.117493 
	C346.698090,334.342194 347.372223,334.887482 348.004822,335.764221 
	C347.386627,335.950684 346.809937,335.805664 346.094482,335.392517 
	C345.820251,334.895660 345.684814,334.666870 345.786652,334.117493 
z"/>
<path fill="#9C9C9C" opacity="1.000000" stroke="none" 
	d="
M382.961243,357.285034 
	C383.340546,356.923431 383.921295,356.898468 384.935608,356.818237 
	C385.717834,356.741821 386.066528,356.720673 386.675934,356.735596 
	C386.947205,356.957489 386.957764,357.143280 386.978882,357.608032 
	C385.713837,357.798584 384.438263,357.710144 382.961243,357.285034 
z"/>
<path fill="#8E8E8E" opacity="1.000000" stroke="none" 
	d="
M249.458374,295.825500 
	C249.625198,295.007080 249.877411,293.854309 251.272614,294.866028 
	C250.792221,295.392181 250.274811,295.622131 249.458374,295.825500 
z"/>
<path fill="#A4A4A4" opacity="1.000000" stroke="none" 
	d="
M217.315765,189.554138 
	C216.699982,189.969376 216.238907,189.983383 215.432037,189.996170 
	C215.482285,189.047577 215.878326,188.100189 216.571960,187.042862 
	C217.959167,187.432205 217.626770,188.316376 217.315765,189.554138 
z"/>
<path fill="#9C9C9C" opacity="1.000000" stroke="none" 
	d="
M175.640305,270.087219 
	C176.108749,269.985901 176.315689,270.000763 176.832977,270.039368 
	C176.980072,270.885284 176.503799,271.437714 175.434113,271.789551 
	C175.228592,271.306854 175.303696,270.755127 175.640305,270.087219 
z"/>
<path fill="#A4A4A4" opacity="1.000000" stroke="none" 
	d="
M210.615509,198.954987 
	C210.946198,199.436447 210.964279,200.071777 210.932312,201.186188 
	C210.678452,201.646805 210.474640,201.628342 210.090942,201.361160 
	C210.041641,200.444580 210.172272,199.776718 210.615509,198.954987 
z"/>
<path fill="#A4A4A4" opacity="1.000000" stroke="none" 
	d="
M214.604095,190.932343 
	C214.986542,191.159668 215.058411,191.544388 215.205383,192.518600 
	C214.965118,193.237564 214.649750,193.367035 214.132996,193.293900 
	C214.052246,192.424103 214.172882,191.756912 214.604095,190.932343 
z"/>
<path fill="#A4A4A4" opacity="1.000000" stroke="none" 
	d="
M151.704468,316.693909 
	C152.939331,317.309113 152.684021,318.146881 151.367554,318.964355 
	C151.063995,318.294434 151.260452,317.626129 151.704468,316.693909 
z"/>
<path fill="#9F9F9F" opacity="1.000000" stroke="none" 
	d="
M281.069580,122.808861 
	C279.589203,123.986061 279.332123,123.168571 279.786743,121.758690 
	C280.451569,121.920120 280.749786,122.207855 281.069580,122.808861 
z"/>
<path fill="#A4A4A4" opacity="1.000000" stroke="none" 
	d="
M217.680130,185.889740 
	C217.953354,186.078156 217.978287,186.354904 218.035690,187.049316 
	C217.814377,187.487488 217.560593,187.507965 217.125336,187.192337 
	C217.106537,186.563507 217.269180,186.270813 217.680130,185.889740 
z"/>
<path fill="#868686" opacity="1.000000" stroke="none" 
	d="
M183.231873,336.056885 
	C183.173431,335.709930 183.463638,335.325836 184.158142,334.980347 
	C184.235123,335.352570 183.907837,335.686127 183.231873,336.056885 
z"/>
<path fill="#9C9C9C" opacity="1.000000" stroke="none" 
	d="
M213.668335,193.725189 
	C214.074539,193.793716 214.167618,194.170761 214.058746,195.094421 
	C211.947006,195.649063 213.091553,194.703934 213.668335,193.725189 
z"/>
<path fill="#9F9F9F" opacity="1.000000" stroke="none" 
	d="
M280.015808,120.759308 
	C279.408966,121.200829 279.002441,120.925758 278.930176,119.855743 
	C279.329163,119.764381 279.645325,120.093277 280.015808,120.759308 
z"/>
<path fill="#868686" opacity="1.000000" stroke="none" 
	d="
M181.264618,336.983948 
	C181.242065,336.732422 181.548187,336.409302 182.217377,336.041687 
	C182.251404,336.302277 181.922363,336.607300 181.264618,336.983948 
z"/>
<path fill="#919191" opacity="1.000000" stroke="none" 
	d="
M381.087280,356.342041 
	C381.225677,356.005859 381.418365,355.980469 381.883148,356.060364 
	C382.327789,357.390137 381.640564,356.825653 381.087280,356.342041 
z"/>
<path fill="#9F9F9F" opacity="1.000000" stroke="none" 
	d="
M281.931519,124.680908 
	C281.679352,124.981911 281.443024,124.960243 280.850525,124.900131 
	C280.489136,124.584999 280.483887,124.308327 280.764526,123.730560 
	C281.349426,123.739059 281.648407,124.048645 281.931519,124.680908 
z"/>
<path fill="#868686" opacity="1.000000" stroke="none" 
	d="
M166.423767,344.684937 
	C166.517319,344.657471 166.837311,344.542389 167.271240,344.192017 
	C167.109772,344.135345 166.864792,344.348846 166.423767,344.684937 
z"/>
<path fill="#A4A4A4" opacity="1.000000" stroke="none" 
	d="
M244.118378,135.730743 
	C243.866043,136.004791 243.672134,135.996185 243.187256,135.977448 
	C243.075531,135.664078 243.254776,135.360886 243.696243,134.985687 
	C244.031235,135.091827 244.104004,135.269958 244.118378,135.730743 
z"/>
<path fill="#969696" opacity="1.000000" stroke="none" 
	d="
M137.990906,355.287079 
	C138.237991,355.224701 138.571152,355.447296 138.951172,355.991882 
	C138.690994,356.066620 138.383972,355.819336 137.990906,355.287079 
z"/>
<path fill="#8E8E8E" opacity="1.000000" stroke="none" 
	d="
M164.257767,346.936951 
	C163.915314,346.592834 164.047150,346.328583 164.658722,346.142151 
	C164.952209,346.462280 164.816742,346.727875 164.257767,346.936951 
z"/>
<path fill="#919191" opacity="1.000000" stroke="none" 
	d="
M353.075317,266.829010 
	C352.525848,267.376648 352.102661,267.217163 351.952454,266.279114 
	C352.399200,266.110168 352.724579,266.317291 353.075317,266.829010 
z"/>
<path fill="#8E8E8E" opacity="1.000000" stroke="none" 
	d="
M252.203690,295.038055 
	C252.071198,294.688965 252.231064,294.305054 252.740387,293.983887 
	C252.891907,294.365479 252.693985,294.684357 252.203690,295.038055 
z"/>
<path fill="#8E8E8E" opacity="1.000000" stroke="none" 
	d="
M273.962280,292.223877 
	C274.143463,292.156250 274.446594,292.319824 274.851746,292.720215 
	C274.663940,292.789703 274.374084,292.622375 273.962280,292.223877 
z"/>
<path fill="#868686" opacity="1.000000" stroke="none" 
	d="
M258.224487,291.342102 
	C258.138641,291.133850 258.280670,290.687347 258.754883,290.119629 
	C258.875488,290.366913 258.663910,290.735382 258.224487,291.342102 
z"/>
<path fill="#989898" opacity="1.000000" stroke="none" 
	d="
M170.647522,279.967499 
	C170.850769,280.339783 170.758118,280.781250 170.292633,281.164551 
	C170.063751,280.749847 170.207687,280.393250 170.647522,279.967499 
z"/>
<path fill="#A4A4A4" opacity="1.000000" stroke="none" 
	d="
M153.697189,313.955261 
	C153.841125,314.324463 153.716339,314.755463 153.240265,315.059601 
	C153.068817,314.627502 153.248657,314.322296 153.697189,313.955261 
z"/>
<path fill="#A4A4A4" opacity="1.000000" stroke="none" 
	d="
M152.651245,314.984009 
	C153.297012,315.436737 153.230316,315.923279 152.327744,316.229950 
	C152.073044,315.764038 152.223358,315.420135 152.651245,314.984009 
z"/>
<path fill="#989898" opacity="1.000000" stroke="none" 
	d="
M354.056152,268.782074 
	C353.412659,269.230530 352.981506,268.945282 352.910217,267.850952 
	C353.352661,267.756897 353.684967,268.093109 354.056152,268.782074 
z"/>
<path fill="#989898" opacity="1.000000" stroke="none" 
	d="
M345.693970,333.803650 
	C346.013489,334.018219 346.002991,334.239532 345.974121,334.792633 
	C345.571442,335.030701 345.187195,334.936981 344.838074,334.547546 
	C345.036774,334.104706 345.200348,333.957550 345.693970,333.803650 
z"/>
<path fill="#919191" opacity="1.000000" stroke="none" 
	d="
M351.033508,262.763428 
	C350.446991,263.153198 350.056946,262.865265 349.961914,261.835510 
	C350.337860,261.756165 350.661407,262.087952 351.033508,262.763428 
z"/>
<path fill="#919191" opacity="1.000000" stroke="none" 
	d="
M350.045563,260.771973 
	C349.441986,261.173157 349.034149,260.885345 348.941742,259.842163 
	C349.346558,259.758545 349.673981,260.091492 350.045563,260.771973 
z"/>
<path fill="#8E8E8E" opacity="1.000000" stroke="none" 
	d="
M282.981628,297.312012 
	C283.270691,297.249054 283.633575,297.488190 283.988647,298.083984 
	C283.672363,298.165161 283.363892,297.889618 282.981628,297.312012 
z"/>
<path fill="#939393" opacity="1.000000" stroke="none" 
	d="
M329.023132,219.688324 
	C328.747253,219.820328 328.392578,219.687103 328.020599,219.238571 
	C328.316986,219.089874 328.630676,219.256485 329.023132,219.688324 
z"/>
<path fill="#000000" opacity="1.000000" stroke="none" 
	d="
M319.845551,234.205383 
	C320.012878,235.046509 320.075745,235.527344 320.388306,236.090332 
	C324.317078,239.440430 325.459015,244.219025 328.064758,248.536957 
	C329.671326,250.814194 330.173462,253.117340 330.740723,255.767349 
	C330.907440,256.079346 330.990417,256.019318 330.942505,256.037140 
	C331.186829,256.226715 331.446472,256.438995 331.823303,256.893188 
	C331.968597,257.100159 331.964661,257.030365 331.929993,257.034790 
	C333.504944,258.510254 333.819153,260.618896 334.773743,262.792542 
	C334.961975,263.080109 334.977417,263.012207 334.943054,263.006439 
	C335.566162,263.470093 335.959839,264.128510 336.336487,265.141510 
	C336.474670,265.804016 336.544128,266.185883 336.782043,266.814819 
	C336.930420,267.065491 336.985596,267.011047 336.948517,267.022339 
	C338.564728,268.485718 339.252747,270.411194 339.787720,272.793976 
	C339.980377,273.081787 339.999451,273.009857 339.963470,273.000427 
	C343.629608,278.326111 345.974792,284.378845 349.150574,290.395203 
	C350.419128,293.294617 351.483429,295.896637 352.761719,298.785339 
	C352.945984,299.084381 352.966400,299.020569 352.933777,299.028198 
	C355.588226,300.850342 355.757324,304.111450 357.151215,306.654633 
	C359.657227,311.226929 361.937408,315.939392 364.132751,321.074341 
	C364.409393,321.867432 364.571320,322.319305 364.851410,323.110779 
	C364.981842,323.445923 364.855347,323.710297 364.917908,323.842834 
	C365.301147,324.269043 365.580872,324.597565 365.912292,325.272461 
	C366.004944,325.583923 365.830200,325.718048 365.880280,325.816132 
	C366.393188,326.242523 366.858673,326.567017 367.536743,327.259766 
	C368.003845,329.821808 367.147064,330.916626 364.474609,330.363647 
	C363.641296,329.813385 363.174591,329.485901 362.432800,329.082764 
	C361.869110,328.794342 361.592529,328.566895 361.162415,328.113159 
	C360.996887,327.901428 361.009338,327.983276 361.050232,327.976807 
	C353.933258,324.315948 347.004242,320.280701 340.121155,315.530487 
	C330.280243,310.058167 320.724121,304.750977 311.388672,298.397339 
	C311.133575,298.145874 310.692871,297.981934 310.457825,297.985901 
	C304.712494,295.426971 299.975830,291.510834 294.163574,288.829285 
	C293.705414,288.562164 293.534454,288.439484 293.122284,288.121674 
	C292.717285,287.805267 292.553436,287.683990 292.148773,287.379517 
	C291.769165,287.051910 291.630371,286.907562 291.298706,286.533020 
	C290.963013,286.161438 290.820190,286.020020 290.442871,285.687195 
	C289.689606,285.126617 289.082245,285.020935 288.175201,284.803101 
	C285.230194,283.572418 282.839386,282.012146 280.256348,280.161560 
	C280.044556,279.905212 280.025116,279.968658 280.058044,279.964600 
	C279.810944,279.770172 279.546936,279.559723 279.125671,279.144043 
	C278.952484,278.958771 278.694672,278.859009 278.570984,278.920715 
	C276.132202,277.988892 273.691437,277.170013 272.461456,274.293335 
	C272.582397,272.870117 272.410492,271.886536 271.756897,270.612488 
	C271.568970,269.742371 271.528229,269.234894 271.527985,268.342896 
	C271.364471,266.394531 272.752075,265.142059 272.220642,263.222229 
	C272.015991,262.900665 272.059082,262.962463 272.089661,262.940460 
	C269.753174,260.314301 271.526093,257.230255 271.271912,254.401337 
	C270.866943,249.893753 270.879425,245.312317 271.752991,240.373917 
	C272.030518,239.968018 272.130341,239.596771 272.054688,239.420044 
	C271.012787,233.533768 273.373383,227.791290 271.800659,221.622070 
	C271.378326,218.687393 271.341553,216.221100 271.875000,213.294189 
	C271.530426,206.043808 271.794403,199.256226 271.813904,192.016388 
	C272.334686,189.259903 272.759827,186.959839 271.562256,184.269226 
	C271.525818,183.543457 271.518555,183.253265 271.506836,182.528519 
	C271.506836,180.354599 271.512604,178.615143 271.052948,176.469299 
	C271.106537,166.284012 271.130066,156.540863 271.026764,146.797226 
	C271.011536,145.362000 270.635101,143.615921 272.281128,142.790634 
	C274.280579,141.788193 275.280548,143.355347 276.494507,145.059830 
	C277.988068,147.638611 278.769135,150.098373 280.136322,152.686920 
	C280.418579,153.494186 280.518951,153.969315 280.751923,154.769379 
	C280.929077,155.084900 280.954681,155.022583 280.921021,155.023010 
	C283.281586,157.089722 283.667572,160.149918 284.875305,163.210815 
	C284.985809,163.563507 284.836334,163.742584 284.897034,163.842178 
	C285.437195,164.375031 285.485168,164.986786 285.769714,165.822571 
	C285.912537,166.085403 285.986755,166.071640 285.952087,166.089691 
	C286.470673,166.501343 286.868652,166.993500 286.879517,168.024857 
	C286.830780,168.349304 286.785950,168.626022 286.847839,168.751770 
	C287.179199,169.111252 287.423279,169.368774 287.781982,169.878479 
	C287.925964,170.103195 287.967499,170.036591 287.930298,170.049103 
	C288.187347,170.229874 288.448151,170.440186 288.830017,170.890381 
	C288.980072,171.093796 288.979553,171.017654 288.941467,171.018234 
	C291.061279,173.330338 291.871948,176.283936 293.021545,179.445892 
	C295.196350,181.738663 295.609131,184.560043 297.075256,187.214539 
	C297.488495,188.145920 297.490723,188.820786 297.719238,189.779083 
	C297.862976,190.078491 297.873016,190.112930 297.888794,190.121460 
	C298.240784,190.353073 298.554871,190.603668 299.053406,191.103333 
	C299.519287,191.632690 299.762299,191.954376 300.137939,192.551392 
	C300.529114,193.794830 300.817596,194.763489 300.881927,196.072342 
	C300.841522,196.372833 300.791931,196.660706 300.861084,196.789337 
	C305.327393,200.880707 307.062653,206.288651 308.879303,212.002808 
	C308.840302,212.374390 308.780640,212.629776 308.840881,212.746246 
	C309.160278,213.110397 309.404999,213.371536 309.773682,213.877136 
	C309.914276,214.106079 309.959137,213.999283 309.925537,214.046844 
	C312.841492,216.121155 313.362976,219.502167 314.762329,222.794739 
	C314.946564,223.093231 314.960693,223.027649 314.927368,223.031631 
	C317.458710,226.213257 318.886688,229.900589 319.845551,234.205383 
z"/>
<path fill="#000000" opacity="1.000000" stroke="none" 
	d="
M255.800995,275.879242 
	C255.426895,276.019104 255.320663,275.825806 255.218689,275.867767 
	C254.784103,276.259827 254.544113,276.666046 254.177002,277.413391 
	C243.937668,283.194183 234.489517,289.691467 224.096512,295.197266 
	C223.900299,295.498291 223.562576,295.322693 223.562576,295.322693 
	C223.562576,295.322693 223.320358,295.617493 223.439636,295.765625 
	C213.987656,301.001892 204.997452,307.106079 195.085907,312.294037 
	C193.528610,313.520294 191.991699,314.121948 190.408539,315.294037 
	C187.787094,316.786194 185.697266,318.497467 182.981720,319.821899 
	C182.707184,320.014923 182.347839,319.884033 182.167450,319.947449 
	C178.074203,322.927979 173.866974,325.284424 168.839264,326.857300 
	C167.986313,327.379547 167.477646,327.778473 166.899231,328.415466 
	C166.020218,330.690765 164.423737,331.539642 162.603439,330.422974 
	C160.493713,329.128784 162.319092,327.532104 162.940552,326.227112 
	C164.054230,323.888550 164.977386,321.426544 167.041458,319.213562 
	C167.661865,319.057953 167.853943,318.961884 168.001892,318.566772 
	C168.298141,317.782898 168.493423,317.142731 168.858795,316.243469 
	C169.094711,316.004944 169.029922,316.015686 169.047241,316.043579 
	C169.679184,315.237946 169.377487,313.912262 170.772491,313.167877 
	C171.025284,312.973694 171.128403,312.494354 171.071503,312.255920 
	C171.276672,308.806335 173.057785,306.228851 174.828705,303.293579 
	C175.103531,303.054657 175.029541,303.013947 175.052277,303.049530 
	C175.418610,302.582581 175.488602,301.981506 175.879486,301.207886 
	C176.084778,300.993683 176.012451,301.008301 176.019928,301.044434 
	C176.826599,298.373993 178.026154,295.854279 179.832809,293.262268 
	C180.097977,293.030396 180.032349,293.021545 180.041443,293.053406 
	C181.950897,287.687164 185.219467,282.915497 187.335266,277.221405 
	C189.320282,272.996429 191.096481,269.067535 193.823608,265.262268 
	C194.094208,265.024933 194.028656,265.019012 194.036911,265.050842 
	C195.496506,263.486816 195.280167,261.137909 196.841187,259.247742 
	C197.104126,259.022644 197.037384,259.022095 197.047653,259.053833 
	C198.221954,256.999908 198.463730,254.480011 200.286118,252.346954 
	C200.776947,251.497070 201.120544,250.943451 201.849060,250.279755 
	C202.109039,250.082169 202.036560,250.020584 202.056702,250.063660 
	C202.257599,249.798981 202.468170,249.513199 202.899384,249.062653 
	C203.090210,248.875931 203.210861,248.598129 203.179962,248.449890 
	C202.582153,244.779404 205.076233,242.394516 206.460281,239.630859 
	C208.984451,234.590622 211.000641,229.273758 214.474548,224.330826 
	C215.260498,219.576065 219.314407,216.638870 219.911011,211.805969 
	C224.211563,205.933197 226.220993,199.240112 229.911621,193.050964 
	C231.749512,189.574448 233.322952,186.360474 234.932861,182.763275 
	C237.244080,177.303192 240.120285,172.529587 242.828888,167.293762 
	C243.103867,167.054443 243.004807,167.034210 243.054565,167.051163 
	C243.321701,166.683578 243.488937,166.278687 243.718002,165.541809 
	C244.769669,162.504135 246.014053,159.928421 247.907028,157.360474 
	C248.191956,157.189514 248.255859,157.191605 248.260803,157.160004 
	C248.369095,156.706863 248.479874,156.287262 248.711395,155.563858 
	C249.476532,153.196136 249.802780,150.979187 251.845520,149.253983 
	C252.100739,149.049149 252.025360,149.021652 252.049622,149.053619 
	C252.644516,148.172684 252.532776,147.049026 253.114899,145.812012 
	C253.723068,144.852493 254.433929,144.333557 254.821228,143.219727 
	C255.020325,142.977066 255.139648,142.735184 255.079483,142.614487 
	C255.317093,141.481918 255.820129,140.598846 257.008606,140.652161 
	C258.319183,140.710953 258.373444,141.778305 258.528503,142.786575 
	C258.757263,144.274139 258.814301,145.744308 258.507507,147.697632 
	C258.526642,165.945312 257.715881,183.708588 257.864075,201.940979 
	C257.270081,204.181198 257.587372,206.007294 257.526367,208.251846 
	C257.914764,209.806015 258.000153,210.956619 257.995270,212.120956 
	C257.915680,231.085785 258.567596,250.044601 258.457336,269.009583 
	C258.453461,269.675049 258.171021,270.296265 257.853271,271.335724 
	C257.564667,272.290314 257.469269,272.849579 257.180054,273.761230 
	C256.926178,274.103363 256.832245,274.306702 256.926758,274.366821 
	C256.888794,274.960846 256.606720,275.398346 255.800995,275.879242 
z"/>
<path fill="#8E8E8E" opacity="1.000000" stroke="none" 
	d="
M272.742706,181.625671 
	C272.987305,182.133362 273.039948,182.317673 273.013916,182.778534 
	C272.122498,184.260880 272.745392,185.685226 271.950256,187.041321 
	C269.493256,185.677917 270.336212,183.469574 270.325409,181.626236 
	C270.253693,169.395905 270.339661,157.164673 270.368164,144.933731 
	C270.373779,142.513580 269.809326,139.180969 272.631592,138.667709 
	C275.255341,138.190552 275.828949,141.404907 276.541840,143.612564 
	C276.843597,144.547119 277.374481,145.407715 277.898651,146.651642 
	C277.819855,147.138092 277.643616,147.274811 277.194427,147.217987 
	C275.704376,145.608963 274.983368,143.659668 272.030334,143.057556 
	C272.030334,154.143509 272.030334,165.070419 272.017670,176.461151 
	C272.966309,178.286911 272.266785,179.855896 272.742706,181.625671 
z"/>
<path fill="#919191" opacity="1.000000" stroke="none" 
	d="
M257.493774,272.350250 
	C257.419098,262.861328 258.437714,253.662445 257.826813,244.573044 
	C257.048798,232.996628 256.957916,221.451920 257.087952,209.412048 
	C257.397919,208.780029 257.644623,208.616638 258.244873,208.721497 
	C259.830200,219.681290 259.020294,230.409363 259.120636,241.119278 
	C259.214996,251.191208 259.003326,261.266022 258.816833,271.744080 
	C258.425934,272.328705 258.144562,272.508789 257.493774,272.350250 
z"/>
<path fill="#919191" opacity="1.000000" stroke="none" 
	d="
M257.490601,203.336517 
	C256.164703,184.994156 258.068024,166.977463 258.098419,148.466858 
	C258.300934,147.783173 258.426727,147.562225 258.742126,147.672150 
	C259.297089,166.100769 259.374084,184.198227 258.667419,202.656769 
	C258.248840,203.217636 258.037109,203.416763 257.490601,203.336517 
z"/>
<path fill="#989898" opacity="1.000000" stroke="none" 
	d="
M224.294647,295.411377 
	C229.118759,290.170166 235.751328,286.848145 241.964188,282.967407 
	C245.519272,280.746796 249.475723,279.168732 253.553894,277.124084 
	C254.150223,276.807343 254.444107,276.667816 255.186691,276.720093 
	C251.179962,282.117889 244.666641,284.266968 239.043304,287.636047 
	C234.428955,290.400604 230.449448,294.631622 224.294647,295.411377 
z"/>
<path fill="#A4A4A4" opacity="1.000000" stroke="none" 
	d="
M193.752502,312.175049 
	C202.726105,306.682617 211.492416,301.470886 220.304153,296.337097 
	C220.944275,295.964142 221.914337,296.157501 223.144958,296.000671 
	C220.579895,299.974884 215.672653,301.179047 211.709183,303.763306 
	C206.213791,307.346405 200.342743,310.353302 194.300110,313.684998 
	C193.627777,313.398438 193.480103,312.972382 193.752502,312.175049 
z"/>
<path fill="#8E8E8E" opacity="1.000000" stroke="none" 
	d="
M291.045044,284.844727 
	C291.316864,284.964600 291.687805,284.846863 291.858337,284.940552 
	C292.243042,285.274170 292.472778,285.498047 292.922119,285.833740 
	C293.126129,285.961578 292.977509,285.989807 292.963257,285.915527 
	C293.117859,286.107452 293.318451,286.347107 293.710815,286.732208 
	C298.908295,290.935394 305.516663,292.498383 310.163574,297.613037 
	C302.768402,297.039673 297.618866,291.539062 291.483734,288.095062 
	C287.559845,285.892334 282.614624,284.850616 279.988220,280.258118 
	C283.568848,279.656830 285.763916,282.272980 288.787415,283.972778 
	C289.599915,284.522980 290.234192,284.489899 291.045044,284.844727 
z"/>
<path fill="#9C9C9C" opacity="1.000000" stroke="none" 
	d="
M311.161316,298.479065 
	C320.940155,302.257782 329.466064,308.706726 338.939209,313.431824 
	C339.234955,313.579315 339.221375,314.347015 339.680603,315.002991 
	C340.200470,315.342560 340.391754,315.504730 340.281006,315.891174 
	C333.608246,314.512787 328.691437,310.146118 323.319183,306.815826 
	C319.238617,304.286255 313.988007,303.309174 311.161316,298.479065 
z"/>
<path fill="#989898" opacity="1.000000" stroke="none" 
	d="
M214.929047,223.853607 
	C211.410461,231.982635 207.531372,239.870758 203.400665,248.030258 
	C201.435928,247.427109 202.059540,245.994781 202.608887,244.921631 
	C206.120956,238.060730 209.744675,231.257019 213.547913,224.185608 
	C214.032288,223.828720 214.300415,223.720718 214.929047,223.853607 
z"/>
<path fill="#939393" opacity="1.000000" stroke="none" 
	d="
M364.145081,322.254913 
	C359.739838,314.862488 356.215057,307.396210 352.930023,299.417419 
	C357.190491,300.080139 356.517578,304.434204 358.194397,307.187592 
	C360.897430,311.625916 363.400513,316.227142 365.057007,321.599548 
	C364.887451,322.133636 364.683533,322.290375 364.145081,322.254913 
z"/>
<path fill="#A4A4A4" opacity="1.000000" stroke="none" 
	d="
M340.202576,316.356689 
	C339.979004,316.115417 340.001312,315.648132 340.005249,315.414246 
	C347.611206,318.094879 354.217804,322.718811 360.966797,327.640991 
	C353.197388,326.006470 347.046967,320.874847 340.202576,316.356689 
z"/>
<path fill="#868686" opacity="1.000000" stroke="none" 
	d="
M349.090332,291.255859 
	C344.658936,285.897369 342.103882,279.951569 340.003174,273.365967 
	C345.125061,276.220245 345.452759,282.503937 348.663635,286.988190 
	C349.315002,287.897827 349.485413,289.151855 349.974121,290.607178 
	C349.860565,291.121826 349.650421,291.276367 349.090332,291.255859 
z"/>
<path fill="#9F9F9F" opacity="1.000000" stroke="none" 
	d="
M230.534363,192.788239 
	C228.776917,199.845673 224.581009,205.634842 221.268738,212.215515 
	C220.589050,211.840973 220.430862,211.208206 220.628967,210.048859 
	C223.350723,204.202530 225.918625,198.832153 228.735352,193.227737 
	C229.341919,192.654236 229.762589,192.502991 230.534363,192.788239 
z"/>
<path fill="#8E8E8E" opacity="1.000000" stroke="none" 
	d="
M167.030640,318.959656 
	C165.730179,322.495972 164.055725,325.968140 162.201889,329.812286 
	C163.775879,329.437775 164.969055,329.153870 166.495865,328.761719 
	C168.827438,330.273041 166.993942,330.984680 166.003143,331.704041 
	C164.607071,332.717651 163.000671,333.167847 161.360687,332.228943 
	C160.212357,331.571533 159.609467,330.327179 160.363953,329.292175 
	C162.764847,325.998596 163.062515,321.442993 167.030640,318.959656 
z"/>
<path fill="#8E8E8E" opacity="1.000000" stroke="none" 
	d="
M272.740479,212.613586 
	C272.953217,215.376709 272.978363,217.788467 272.944214,220.649567 
	C272.177155,222.319977 272.720581,223.717041 271.947296,225.056580 
	C269.162506,219.052994 270.804291,212.787781 270.923676,206.321014 
	C273.932678,207.594986 271.788940,210.254211 272.740479,212.613586 
z"/>
<path fill="#8E8E8E" opacity="1.000000" stroke="none" 
	d="
M271.660828,239.984665 
	C272.041473,247.309097 272.052460,254.650192 272.091827,262.454865 
	C271.373444,263.039032 270.640442,262.779388 270.648193,262.032013 
	C270.724701,254.685089 269.495697,247.296631 271.660828,239.984665 
z"/>
<path fill="#969696" opacity="1.000000" stroke="none" 
	d="
M309.185364,212.207581 
	C306.261719,207.463058 303.683105,202.551727 301.017365,197.279190 
	C301.705139,196.106674 302.607361,196.464615 302.997284,197.117798 
	C305.798950,201.811478 309.164337,206.277100 309.185364,212.207581 
z"/>
<path fill="#939393" opacity="1.000000" stroke="none" 
	d="
M242.746307,166.979645 
	C242.169983,172.791855 238.611572,177.328751 235.953094,182.677155 
	C235.464111,183.329071 235.065430,183.474167 234.342041,183.230621 
	C235.938492,177.177917 238.913269,171.912338 242.746307,166.979645 
z"/>
<path fill="#939393" opacity="1.000000" stroke="none" 
	d="
M187.827255,276.817078 
	C186.514832,282.709473 183.965851,287.941284 180.384247,292.965363 
	C179.870026,286.938538 184.693771,282.815094 186.624481,277.182892 
	C187.086731,276.826263 187.306976,276.710907 187.827255,276.817078 
z"/>
<path fill="#A7A7A7" opacity="1.000000" stroke="none" 
	d="
M168.796143,327.357910 
	C172.312897,323.882202 176.312714,321.116852 181.607147,320.018524 
	C179.053894,324.860870 174.033081,326.227112 168.796143,327.357910 
z"/>
<path fill="#989898" opacity="1.000000" stroke="none" 
	d="
M328.148254,249.239319 
	C324.402344,245.634323 323.116089,240.985519 320.783112,236.510742 
	C320.393677,235.615845 319.854889,234.886917 320.704651,234.566269 
	C321.965668,234.090439 322.321991,235.222427 322.741150,236.074478 
	C324.748688,240.155289 326.746674,244.240814 328.864288,248.665070 
	C328.799042,249.146866 328.617584,249.288223 328.148254,249.239319 
z"/>
<path fill="#919191" opacity="1.000000" stroke="none" 
	d="
M220.503387,209.801971 
	C220.819168,210.206741 220.855515,210.840561 220.920822,211.948730 
	C219.267319,216.196899 217.584869,219.970703 215.595993,223.919510 
	C215.035660,224.067535 214.781754,224.040558 214.146011,223.975143 
	C214.526276,218.655228 218.672226,214.945694 220.503387,209.801971 
z"/>
<path fill="#868686" opacity="1.000000" stroke="none" 
	d="
M364.162170,330.467529 
	C365.495575,329.966064 367.173218,330.157288 366.931946,327.552856 
	C366.832031,326.886322 366.720032,326.579193 366.988617,325.962769 
	C368.009308,326.385986 368.881256,327.020081 369.242371,327.870972 
	C370.046936,329.766907 370.522308,332.057709 368.362640,333.176758 
	C366.357208,334.215881 365.020782,332.626099 364.162170,330.467529 
z"/>
<path fill="#8E8E8E" opacity="1.000000" stroke="none" 
	d="
M271.700653,203.848068 
	C269.788635,199.009659 270.273224,194.042419 271.275757,188.970947 
	C272.228088,189.057831 272.536835,189.498093 272.490845,190.646088 
	C272.309052,195.316055 272.913361,199.554092 271.700653,203.848068 
z"/>
<path fill="#989898" opacity="1.000000" stroke="none" 
	d="
M233.843292,183.268158 
	C234.463409,183.017914 234.844711,183.015854 235.512054,183.009949 
	C235.210052,186.610382 233.244553,189.525116 230.964722,192.683136 
	C230.406570,193.006302 230.000153,193.004807 229.288971,192.998505 
	C230.524277,189.834595 232.064377,186.675476 233.843292,183.268158 
z"/>
<path fill="#8E8E8E" opacity="1.000000" stroke="none" 
	d="
M188.418060,276.845032 
	C187.917236,277.021606 187.707184,277.004578 187.181808,276.964600 
	C188.599045,272.729370 189.959305,268.312744 193.746750,265.031189 
	C193.297821,269.363037 190.017395,272.550537 188.418060,276.845032 
z"/>
<path fill="#C5C5C5" opacity="1.000000" stroke="none" 
	d="
M271.245667,204.291794 
	C272.749695,199.989777 271.485046,195.856216 272.076904,191.378815 
	C272.234192,190.726807 272.365295,190.538727 272.667908,190.648682 
	C272.895264,197.975952 272.951050,205.005188 272.967468,212.499695 
	C271.105133,211.171021 272.467804,208.661255 271.336334,206.354599 
	C271.183990,205.571869 271.209320,205.106537 271.245667,204.291794 
z"/>
<path fill="#9C9C9C" opacity="1.000000" stroke="none" 
	d="
M320.259644,234.206223 
	C318.013458,231.103836 315.744873,227.796570 314.918213,223.421265 
	C319.106934,225.420883 319.433838,229.846054 320.259644,234.206223 
z"/>
<path fill="#A7A7A7" opacity="1.000000" stroke="none" 
	d="
M183.072769,319.903442 
	C183.845444,317.008636 186.201691,315.555115 189.576920,314.887329 
	C190.114410,315.083740 190.275848,315.314026 190.296631,315.942078 
	C188.344833,318.323486 186.123383,319.508728 183.072769,319.903442 
z"/>
<path fill="#969696" opacity="1.000000" stroke="none" 
	d="
M247.840668,157.114746 
	C248.296646,160.525345 245.602829,162.730988 244.467804,165.878036 
	C243.913330,166.199341 243.652252,166.327240 243.008240,166.246552 
	C244.019730,162.915985 244.280807,159.181305 247.840668,157.114746 
z"/>
<path fill="#9C9C9C" opacity="1.000000" stroke="none" 
	d="
M315.078857,222.712967 
	C312.025574,221.095779 311.508606,217.636536 309.906494,214.461365 
	C314.473969,215.026886 313.764526,219.375824 315.078857,222.712967 
z"/>
<path fill="#939393" opacity="1.000000" stroke="none" 
	d="
M297.162842,188.363617 
	C294.840851,186.014084 293.897888,183.443756 292.976715,180.486710 
	C292.844025,179.795593 292.734039,179.468002 292.976562,178.760391 
	C295.808594,180.830170 297.019928,183.956589 298.115234,187.549927 
	C297.987000,188.157959 297.773071,188.406738 297.162842,188.363617 
z"/>
<path fill="#919191" opacity="1.000000" stroke="none" 
	d="
M174.747742,302.988495 
	C174.961258,306.352295 173.294540,308.941925 171.131531,311.686432 
	C169.719604,308.086823 171.996338,305.482513 174.747742,302.988495 
z"/>
<path fill="#A4A4A4" opacity="1.000000" stroke="none" 
	d="
M285.107391,163.143646 
	C282.891144,161.362564 281.366852,158.866455 280.925232,155.406937 
	C284.696198,156.258667 284.157623,159.945084 285.107391,163.143646 
z"/>
<path fill="#969696" opacity="1.000000" stroke="none" 
	d="
M293.280029,178.038055 
	C293.264374,178.670380 293.199738,178.960388 293.044556,179.686783 
	C290.992706,177.645477 289.405243,174.988266 288.927246,171.402832 
	C292.067749,172.128494 292.532104,174.988113 293.280029,178.038055 
z"/>
<path fill="#8E8E8E" opacity="1.000000" stroke="none" 
	d="
M272.526123,273.626282 
	C274.511475,275.378204 276.252502,276.904419 278.220459,278.706543 
	C275.183289,278.862152 272.077118,278.503326 271.732910,274.183594 
	C272.090668,273.800720 272.186249,273.600647 272.526123,273.626282 
z"/>
<path fill="#FBFBFB" opacity="1.000000" stroke="none" 
	d="
M271.589264,225.405701 
	C271.782867,223.909912 272.009613,222.690582 272.560669,221.285065 
	C272.839020,226.989624 272.793060,232.880325 272.363098,239.007187 
	C271.917786,239.068359 271.856537,238.893402 271.687073,238.462296 
	C270.766785,236.067749 270.921814,233.880569 271.403473,231.237885 
	C271.575500,230.440796 271.594116,230.090500 271.575256,229.479309 
	C271.345551,228.690918 271.274139,228.147522 271.441528,227.190231 
	C271.580444,226.422211 271.601440,226.052185 271.589264,225.405701 
z"/>
<path fill="#8E8E8E" opacity="1.000000" stroke="none" 
	d="
M259.022980,147.649261 
	C258.931793,148.003021 258.553467,148.004486 258.364319,148.004303 
	C258.108490,146.264297 258.059235,144.523575 257.970764,142.784851 
	C257.858887,140.585358 256.884521,140.858170 255.325928,142.245438 
	C254.689301,140.775940 255.250015,139.398499 257.065033,139.311218 
	C259.084442,139.214142 259.222382,140.923935 259.233917,142.436981 
	C259.246277,144.056091 259.158325,145.675949 259.022980,147.649261 
z"/>
<path fill="#939393" opacity="1.000000" stroke="none" 
	d="
M179.735657,293.009644 
	C180.492477,296.292328 177.768250,298.136169 176.320465,300.887085 
	C175.681274,297.779022 176.804581,295.085114 179.735657,293.009644 
z"/>
<path fill="#969696" opacity="1.000000" stroke="none" 
	d="
M298.206818,192.187622 
	C297.985413,191.587830 297.953217,191.172028 297.912781,190.443115 
	C302.231781,190.188354 301.430603,193.408783 301.200073,196.214569 
	C300.088837,195.642502 299.007751,195.173523 298.908630,193.606018 
	C298.792328,192.950302 298.618042,192.647232 298.206818,192.187622 
z"/>
<path fill="#8E8E8E" opacity="1.000000" stroke="none" 
	d="
M251.742798,149.011322 
	C251.317795,151.258942 250.534851,153.468735 249.452026,155.865936 
	C248.914169,156.185562 248.676193,156.317764 248.113159,156.202789 
	C248.275253,153.261566 248.708145,150.539581 251.742798,149.011322 
z"/>
<path fill="#989898" opacity="1.000000" stroke="none" 
	d="
M276.933411,147.400208 
	C277.100616,147.021561 277.279755,147.018707 277.727478,147.008621 
	C279.942871,148.624542 280.114563,151.115463 281.122192,153.592911 
	C281.027039,154.113480 280.853516,154.277176 280.394348,154.225342 
	C278.743561,152.089523 276.763855,150.481094 276.933411,147.400208 
z"/>
<path fill="#8E8E8E" opacity="1.000000" stroke="none" 
	d="
M272.743622,267.613129 
	C272.995483,268.419617 273.056274,268.890198 273.026123,269.707947 
	C272.446838,270.583832 272.526917,271.287109 272.047607,272.017151 
	C269.225037,270.060242 270.330872,267.602600 271.266693,265.031677 
	C273.291992,265.099548 272.124664,266.514313 272.743622,267.613129 
z"/>
<path fill="#969696" opacity="1.000000" stroke="none" 
	d="
M200.783890,251.808960 
	C200.287979,254.471924 199.411209,256.875092 197.397537,258.985229 
	C196.525284,256.441864 197.785172,254.347931 199.433182,252.101379 
	C199.966339,251.803757 200.210358,251.689133 200.783890,251.808960 
z"/>
<path fill="#969696" opacity="1.000000" stroke="none" 
	d="
M348.827057,291.449493 
	C348.962189,291.063232 349.183990,291.045685 349.738251,290.997681 
	C351.829376,293.129211 352.455353,295.774200 353.084534,298.721558 
	C350.456329,297.298035 349.460785,294.682587 348.827057,291.449493 
z"/>
<path fill="#8E8E8E" opacity="1.000000" stroke="none" 
	d="
M271.267944,230.978363 
	C271.646576,232.961533 271.736206,235.131958 271.702332,237.754272 
	C269.419159,236.026276 270.214600,233.594635 271.267944,230.978363 
z"/>
<path fill="#9C9C9C" opacity="1.000000" stroke="none" 
	d="
M327.904816,249.424194 
	C328.047180,249.043015 328.233917,249.036972 328.700562,249.018219 
	C330.822418,250.750549 331.185059,253.058960 331.164581,255.747345 
	C329.413208,254.225372 328.097015,252.287521 327.904816,249.424194 
z"/>
<path fill="#939393" opacity="1.000000" stroke="none" 
	d="
M335.075928,262.699768 
	C332.837799,261.951385 332.138000,260.007294 331.912292,257.410645 
	C334.905609,257.606232 334.816315,260.107239 335.075928,262.699768 
z"/>
<path fill="#9F9F9F" opacity="1.000000" stroke="none" 
	d="
M190.475555,316.243713 
	C190.122955,316.091919 190.089951,315.844086 190.004974,315.224854 
	C190.465240,313.166443 192.305099,313.153046 193.654480,312.012878 
	C193.957718,312.294861 193.966782,312.714508 193.971771,313.448608 
	C192.910187,314.557953 191.852661,315.352814 190.475555,316.243713 
z"/>
<path fill="#8E8E8E" opacity="1.000000" stroke="none" 
	d="
M340.050598,272.692383 
	C338.366608,271.649170 337.763031,269.643768 336.934967,267.392944 
	C340.122955,267.485626 339.591156,270.217560 340.050598,272.692383 
z"/>
<path fill="#969696" opacity="1.000000" stroke="none" 
	d="
M196.734467,259.042725 
	C196.682846,261.113251 196.241486,263.195618 194.383301,264.959290 
	C193.517075,262.574646 194.492920,260.646088 196.734467,259.042725 
z"/>
<path fill="#8E8E8E" opacity="1.000000" stroke="none" 
	d="
M254.232697,145.622421 
	C253.586975,147.037155 253.143463,147.985352 252.386902,149.009567 
	C251.345108,147.106171 252.452469,145.527802 253.491302,143.603516 
	C254.279282,143.836166 254.500778,144.443634 254.232697,145.622421 
z"/>
<path fill="#FBFBFB" opacity="1.000000" stroke="none" 
	d="
M272.917145,190.514465 
	C272.839447,190.946701 272.471130,190.934387 272.287109,190.924622 
	C272.018829,190.449219 271.934570,189.983582 271.704102,189.194397 
	C271.576050,188.483597 271.594208,188.096313 271.585541,187.419159 
	C271.792419,185.888092 272.026093,184.646896 272.597473,183.230377 
	C272.955078,185.397461 272.974976,187.739838 272.917145,190.514465 
z"/>
<path fill="#969696" opacity="1.000000" stroke="none" 
	d="
M287.162048,168.463776 
	C286.528931,167.819855 286.227051,167.290405 285.921326,166.434341 
	C288.422638,165.668289 288.777924,166.600250 287.162048,168.463776 
z"/>
<path fill="#C5C5C5" opacity="1.000000" stroke="none" 
	d="
M257.070251,203.470901 
	C257.373627,203.063110 257.591339,203.069061 258.134827,203.046753 
	C258.506409,204.723648 258.552216,206.428802 258.598267,208.561859 
	C258.357574,208.971771 258.116699,208.953812 257.513550,208.939651 
	C257.095703,207.257172 257.040161,205.570923 257.070251,203.470901 
z"/>
<path fill="#FBFBFB" opacity="1.000000" stroke="none" 
	d="
M272.968262,267.550781 
	C271.698792,267.548370 272.047699,266.415771 271.696411,265.206726 
	C271.619965,264.416077 271.672455,263.965729 271.870453,263.208038 
	C273.932617,263.949768 272.611603,265.749573 272.968262,267.550781 
z"/>
<path fill="#939393" opacity="1.000000" stroke="none" 
	d="
M336.506287,266.232544 
	C335.860413,265.215820 335.443237,264.444031 334.967407,263.336426 
	C336.367249,263.136444 336.479095,264.454041 337.132446,265.724670 
	C337.078674,266.192017 336.906830,266.334717 336.506287,266.232544 
z"/>
<path fill="#919191" opacity="1.000000" stroke="none" 
	d="
M170.615128,312.849304 
	C170.563492,313.912384 170.101669,314.851074 169.352219,315.930603 
	C168.250488,314.549042 168.358780,313.340881 170.615128,312.849304 
z"/>
<path fill="#8E8E8E" opacity="1.000000" stroke="none" 
	d="
M271.315033,226.846069 
	C271.628967,227.335037 271.698517,227.877838 271.652924,228.819550 
	C270.140930,228.695694 270.382080,227.842880 271.315033,226.846069 
z"/>
<path fill="#9F9F9F" opacity="1.000000" stroke="none" 
	d="
M201.393829,251.927658 
	C200.882111,252.022476 200.650803,252.001541 200.070892,251.949493 
	C199.957962,250.931412 200.428162,250.133652 201.778473,249.930664 
	C201.964111,250.658752 201.819183,251.235336 201.393829,251.927658 
z"/>
<path fill="#FBFBFB" opacity="1.000000" stroke="none" 
	d="
M271.811218,272.426208 
	C271.923920,271.499146 272.116577,270.879822 272.622253,270.157776 
	C272.900177,271.067841 272.865143,272.080597 272.800262,273.472687 
	C272.770416,273.851990 272.344360,273.726318 272.169739,273.863556 
	C271.960480,273.578491 271.925842,273.156189 271.811218,272.426208 
z"/>
<path fill="#939393" opacity="1.000000" stroke="none" 
	d="
M254.366379,145.951004 
	C253.977219,145.479309 253.923935,144.869644 253.820526,143.796753 
	C254.033234,143.139160 254.296097,142.944809 254.789642,142.863770 
	C254.914322,143.922394 254.808289,144.867722 254.366379,145.951004 
z"/>
<path fill="#A7A7A7" opacity="1.000000" stroke="none" 
	d="
M296.833862,188.389313 
	C297.005127,188.041428 297.243652,188.011154 297.841583,187.945023 
	C298.307587,188.454468 298.414185,188.999756 298.191895,189.811768 
	C297.045624,189.969650 296.876770,189.406036 296.833862,188.389313 
z"/>
<path fill="#8E8E8E" opacity="1.000000" stroke="none" 
	d="
M168.706726,316.096558 
	C168.908020,316.649017 168.721313,317.293121 168.278763,318.167603 
	C167.660843,317.599731 167.735077,316.859863 168.706726,316.096558 
z"/>
<path fill="#9C9C9C" opacity="1.000000" stroke="none" 
	d="
M257.037598,272.353027 
	C257.387787,272.030487 257.651154,272.049408 258.310944,272.108459 
	C258.751801,273.026001 258.522919,273.779602 257.333435,274.192993 
	C256.934387,273.633728 256.942596,273.164124 257.037598,272.353027 
z"/>
<path fill="#939393" opacity="1.000000" stroke="none" 
	d="
M175.728149,301.072510 
	C175.959366,301.627167 175.833939,302.260651 175.391769,302.989624 
	C174.561203,302.346588 174.820618,301.726624 175.728149,301.072510 
z"/>
<path fill="#A4A4A4" opacity="1.000000" stroke="none" 
	d="
M286.164490,165.757050 
	C285.119934,165.897888 284.948700,165.309402 284.957458,164.273346 
	C286.046295,163.846497 286.359131,164.512283 286.164490,165.757050 
z"/>
<path fill="#9F9F9F" opacity="1.000000" stroke="none" 
	d="
M366.976837,325.538513 
	C367.300201,325.910675 367.231232,326.167877 367.053131,326.809265 
	C366.625336,326.967316 366.306641,326.741180 365.959167,326.214600 
	C366.148438,325.750671 366.366486,325.587097 366.976837,325.538513 
z"/>
<path fill="#969696" opacity="1.000000" stroke="none" 
	d="
M288.983521,170.764862 
	C288.669647,170.925095 288.359222,170.756393 287.970947,170.324646 
	C288.257721,170.186386 288.622375,170.311157 288.983521,170.764862 
z"/>
<path fill="#969696" opacity="1.000000" stroke="none" 
	d="
M288.045837,169.734131 
	C287.596161,169.899567 287.266327,169.695938 286.923157,169.184937 
	C287.476257,168.659164 287.894897,168.821686 288.045837,169.734131 
z"/>
<path fill="#939393" opacity="1.000000" stroke="none" 
	d="
M242.644974,166.342041 
	C242.883469,166.043091 243.141678,166.048187 243.787140,166.062378 
	C243.994492,166.371338 243.814545,166.671219 243.369476,167.019608 
	C242.957779,166.927460 242.811234,166.786789 242.644974,166.342041 
z"/>
<path fill="#A4A4A4" opacity="1.000000" stroke="none" 
	d="
M280.067261,154.282288 
	C280.290222,153.999466 280.471741,153.989136 280.926910,153.964294 
	C281.225952,154.155853 281.251373,154.361938 281.102966,154.826477 
	C280.627991,154.908188 280.326904,154.731461 280.067261,154.282288 
z"/>
<path fill="#969696" opacity="1.000000" stroke="none" 
	d="
M247.805908,156.290192 
	C248.015579,155.969955 248.243057,155.984329 248.811340,156.026016 
	C249.053986,156.437714 248.955841,156.822098 248.561722,157.167450 
	C248.118408,156.960541 247.971039,156.792664 247.805908,156.290192 
z"/>
<path fill="#8E8E8E" opacity="1.000000" stroke="none" 
	d="
M278.951874,279.284729 
	C279.287018,279.105438 279.621582,279.252136 280.023560,279.679657 
	C279.711060,279.843903 279.331177,279.727325 278.951874,279.284729 
z"/>
<path fill="#9C9C9C" opacity="1.000000" stroke="none" 
	d="
M255.597931,276.613647 
	C255.339081,276.928070 255.042786,276.944244 254.301407,276.953613 
	C254.070175,276.614563 254.283997,276.282257 254.807266,275.929871 
	C255.264618,276.044952 255.412537,276.180145 255.597931,276.613647 
z"/>
<path fill="#9C9C9C" opacity="1.000000" stroke="none" 
	d="
M255.815033,275.900696 
	C255.781723,275.665863 256.136566,275.312653 256.756317,274.693176 
	C256.748566,274.878723 256.475891,275.330505 255.815033,275.900696 
z"/>
<path fill="#8E8E8E" opacity="1.000000" stroke="none" 
	d="
M336.210571,266.233490 
	C336.277588,265.987640 336.761963,266.002533 337.006226,266.025940 
	C337.251953,266.235962 337.253418,266.422607 337.092651,266.837372 
	C336.668121,266.870117 336.405853,266.674744 336.210571,266.233490 
z"/>
<path fill="#9C9C9C" opacity="1.000000" stroke="none" 
	d="
M332.010071,256.750946 
	C331.656982,256.930054 331.345367,256.759918 330.964172,256.322388 
	C331.280212,256.170532 331.665894,256.286133 332.010071,256.750946 
z"/>
<path fill="#9F9F9F" opacity="1.000000" stroke="none" 
	d="
M363.943970,322.339142 
	C364.023834,322.049866 364.237091,322.036987 364.770874,322.000519 
	C365.118225,322.225098 365.145050,322.473267 365.076843,323.083679 
	C364.680359,323.169128 364.378906,322.892365 363.943970,322.339142 
z"/>
<path fill="#9F9F9F" opacity="1.000000" stroke="none" 
	d="
M365.982239,325.215820 
	C365.709381,325.261658 365.413818,324.939392 365.049377,324.296234 
	C365.306824,324.266144 365.633209,324.556946 365.982239,325.215820 
z"/>
<path fill="#989898" opacity="1.000000" stroke="none" 
	d="
M202.704208,248.810028 
	C202.951324,249.239075 202.812454,249.602234 202.375214,250.036057 
	C202.157303,249.652527 202.237762,249.198318 202.704208,248.810028 
z"/>
<path fill="#A4A4A4" opacity="1.000000" stroke="none" 
	d="
M361.039124,328.204041 
	C361.306976,328.098328 361.617035,328.295227 362.042419,328.749634 
	C361.798950,328.840302 361.440155,328.673462 361.039124,328.204041 
z"/>
<path fill="#969696" opacity="1.000000" stroke="none" 
	d="
M310.041382,213.729904 
	C309.587708,213.896683 309.261139,213.687286 308.917847,213.170303 
	C309.481049,212.619919 309.903564,212.783493 310.041382,213.729904 
z"/>
<path fill="#FBFBFB" opacity="1.000000" stroke="none" 
	d="
M272.968262,181.552460 
	C271.134125,180.879456 272.278931,179.125580 271.977905,177.319427 
	C273.959747,177.953003 272.595917,179.762924 272.968262,181.552460 
z"/>
<path fill="#FBFBFB" opacity="1.000000" stroke="none" 
	d="
M291.131775,284.694244 
	C290.699799,284.872345 290.082733,284.780090 289.290405,284.411682 
	C289.725616,284.231628 290.336151,284.327759 291.131775,284.694244 
z"/>
<path fill="#A7A7A7" opacity="1.000000" stroke="none" 
	d="
M298.001953,192.298981 
	C298.250336,192.264130 298.483093,192.524612 298.817383,193.032944 
	C298.608063,193.051971 298.297180,192.823135 298.001953,192.298981 
z"/>
<path fill="#FBFBFB" opacity="1.000000" stroke="none" 
	d="
M293.857666,286.640686 
	C293.646118,286.696381 293.421448,286.488525 293.072906,286.060913 
	C293.247528,286.019836 293.546021,286.198486 293.857666,286.640686 
z"/>
<path fill="#FBFBFB" opacity="1.000000" stroke="none" 
	d="
M293.041321,285.704010 
	C292.729980,285.867676 292.333862,285.773804 291.983307,285.357086 
	C292.338104,285.171661 292.647308,285.309052 293.041321,285.704010 
z"/>
</svg>